<svg width="200" height="200" viewBox="0 0 200 200" fill="none" xmlns="http://www.w3.org/2000/svg">
<path d="M0 32C0 14.3269 14.3269 0 32 0H168C185.673 0 200 14.3269 200 32V168C200 185.673 185.673 200 168 200H32C14.3269 200 0 185.673 0 168V32Z" fill="#0044FF"/>
<mask id="path-2-inside-1_42_50" fill="white">
<path d="M49.7939 45.8148C73.2243 39.2833 99.974 38.1633 121.12 42.9115C131.685 45.2838 141.245 49.2087 148.273 55.0248C155.439 60.9538 160 68.9095 160 78.7601L159.994 79.3431C159.827 87.4706 156.166 94.4197 150.128 100C156.309 105.714 160 112.861 160 121.24C160 131.088 155.438 139.041 148.273 144.968C141.245 150.783 131.685 154.707 121.12 157.079C99.9745 161.828 73.2249 160.711 49.7949 154.186C46.9224 153.385 45.2419 150.407 46.042 147.535C46.8424 144.662 49.8207 142.982 52.6934 143.782C74.6351 149.892 99.5647 150.851 118.754 146.542C128.356 144.386 136.129 140.999 141.39 136.647C146.514 132.408 149.2 127.339 149.2 121.24C149.2 115.995 146.704 110.892 141.073 106.441C140.514 106.75 139.948 107.056 139.37 107.351C126.968 113.681 109.584 117.123 88.7949 117.123V117.124L88.793 117.123L88.792 117.124L88.791 117.123C76.4748 117.129 65.1315 115.789 56.7012 113.51C52.5246 112.381 48.7541 110.941 45.9014 109.118C43.3011 107.455 40.0001 104.502 40 100C40 99.9071 40.0012 99.8141 40.0059 99.722C40.144 95.3834 43.3577 92.5214 45.9014 90.8949C48.7539 89.071 52.5239 87.631 56.7002 86.5013C65.1308 84.221 76.475 82.8754 88.792 82.8754C109.583 82.8754 126.968 86.3187 139.37 92.6488C139.948 92.9437 140.515 93.2494 141.074 93.559C146.47 89.293 148.988 84.4282 149.188 79.4135L149.2 78.7601C149.2 72.6571 146.513 67.5865 141.389 63.3461C136.128 58.9928 128.356 55.6047 118.754 53.4486C99.5651 49.1399 74.6358 50.1017 52.6943 56.2181C49.8217 57.0188 46.8429 55.3388 46.042 52.4662C45.2414 49.5936 46.9215 46.6158 49.7939 45.8148ZM88.792 93.6761C77.1455 93.6762 66.7937 94.9586 59.5195 96.9261C55.8439 97.9204 53.2589 99.0095 51.7197 99.9935C51.7134 99.9976 51.7065 100.001 51.7002 100.005C51.7064 100.009 51.7125 100.014 51.7188 100.018C53.2576 101.002 55.8429 102.091 59.5186 103.084C66.7923 105.05 77.1441 106.33 88.79 106.325H88.792C105.574 106.325 119.284 103.946 129.379 100C119.284 96.0551 105.574 93.6761 88.792 93.6761Z"/>
</mask>
<path d="M49.7939 45.8148C73.2243 39.2833 99.974 38.1633 121.12 42.9115C131.685 45.2838 141.245 49.2087 148.273 55.0248C155.439 60.9538 160 68.9095 160 78.7601L159.994 79.3431C159.827 87.4706 156.166 94.4197 150.128 100C156.309 105.714 160 112.861 160 121.24C160 131.088 155.438 139.041 148.273 144.968C141.245 150.783 131.685 154.707 121.12 157.079C99.9745 161.828 73.2249 160.711 49.7949 154.186C46.9224 153.385 45.2419 150.407 46.042 147.535C46.8424 144.662 49.8207 142.982 52.6934 143.782C74.6351 149.892 99.5647 150.851 118.754 146.542C128.356 144.386 136.129 140.999 141.39 136.647C146.514 132.408 149.2 127.339 149.2 121.24C149.2 115.995 146.704 110.892 141.073 106.441C140.514 106.75 139.948 107.056 139.37 107.351C126.968 113.681 109.584 117.123 88.7949 117.123V117.124L88.793 117.123L88.792 117.124L88.791 117.123C76.4748 117.129 65.1315 115.789 56.7012 113.51C52.5246 112.381 48.7541 110.941 45.9014 109.118C43.3011 107.455 40.0001 104.502 40 100C40 99.9071 40.0012 99.8141 40.0059 99.722C40.144 95.3834 43.3577 92.5214 45.9014 90.8949C48.7539 89.071 52.5239 87.631 56.7002 86.5013C65.1308 84.221 76.475 82.8754 88.792 82.8754C109.583 82.8754 126.968 86.3187 139.37 92.6488C139.948 92.9437 140.515 93.2494 141.074 93.559C146.47 89.293 148.988 84.4282 149.188 79.4135L149.2 78.7601C149.2 72.6571 146.513 67.5865 141.389 63.3461C136.128 58.9928 128.356 55.6047 118.754 53.4486C99.5651 49.1399 74.6358 50.1017 52.6943 56.2181C49.8217 57.0188 46.8429 55.3388 46.042 52.4662C45.2414 49.5936 46.9215 46.6158 49.7939 45.8148ZM88.792 93.6761C77.1455 93.6762 66.7937 94.9586 59.5195 96.9261C55.8439 97.9204 53.2589 99.0095 51.7197 99.9935C51.7134 99.9976 51.7065 100.001 51.7002 100.005C51.7064 100.009 51.7125 100.014 51.7188 100.018C53.2576 101.002 55.8429 102.091 59.5186 103.084C66.7923 105.05 77.1441 106.33 88.79 106.325H88.792C105.574 106.325 119.284 103.946 129.379 100C119.284 96.0551 105.574 93.6761 88.792 93.6761Z" fill="white"/>
<path d="M49.7939 45.8148L48.7198 41.9617L48.7195 41.9618L49.7939 45.8148ZM121.12 42.9115L121.996 39.0087L121.996 39.0087L121.12 42.9115ZM148.273 55.0248L150.824 51.943L150.823 51.943L148.273 55.0248ZM160 78.7601L164 78.8003L164 78.7802V78.7601L160 78.7601ZM159.994 79.3431L163.993 79.4254L163.994 79.4044L163.994 79.3833L159.994 79.3431ZM150.128 100L147.413 97.0629L144.235 100L147.413 102.938L150.128 100ZM160 121.24H164V121.24L160 121.24ZM148.273 144.968L150.823 148.05L150.823 148.05L148.273 144.968ZM121.12 157.079L121.996 160.982H121.996L121.12 157.079ZM49.7949 154.186L48.7213 158.039L48.7218 158.039L49.7949 154.186ZM46.042 147.535L42.1888 146.461L42.1886 146.461L46.042 147.535ZM52.6934 143.782L53.7665 139.928L53.7663 139.928L52.6934 143.782ZM118.754 146.542L119.63 150.445L119.63 150.445L118.754 146.542ZM141.39 136.647L143.939 139.729L143.939 139.729L141.39 136.647ZM149.2 121.24H153.2V121.24L149.2 121.24ZM141.073 106.441L143.554 103.303L141.465 101.652L139.136 102.941L141.073 106.441ZM139.37 107.351L141.189 110.914L141.189 110.914L139.37 107.351ZM88.7949 117.123L88.7949 113.123L84.7949 113.123V117.123H88.7949ZM88.7949 117.124L87.0061 120.702L92.7949 123.597V117.124H88.7949ZM88.793 117.123L90.5818 113.546L88.0032 112.256L85.9645 114.295L88.793 117.123ZM88.792 117.124L85.9636 119.953L88.792 122.781L91.6204 119.953L88.792 117.124ZM88.791 117.123L91.6194 114.295L90.4471 113.123L88.7891 113.123L88.791 117.123ZM56.7012 113.51L55.6574 117.372L55.6575 117.372L56.7012 113.51ZM45.9014 109.118L43.7468 112.488L43.7468 112.488L45.9014 109.118ZM40 100H36V100L40 100ZM40.0059 99.722L44.0007 99.9246L44.0026 99.887L44.0038 99.8493L40.0059 99.722ZM45.9014 90.8949L43.7466 87.5249L43.7466 87.5249L45.9014 90.8949ZM56.7002 86.5013L55.6558 82.6401L55.6558 82.6401L56.7002 86.5013ZM88.792 82.8754V78.8754H88.792L88.792 82.8754ZM139.37 92.6488L141.189 89.0861L141.189 89.086L139.37 92.6488ZM141.074 93.559L139.137 97.0583L141.466 98.3482L143.555 96.6968L141.074 93.559ZM149.188 79.4135L153.184 79.5728L153.186 79.532L153.187 79.4912L149.188 79.4135ZM149.2 78.7601L153.199 78.8378L153.2 78.799V78.7601L149.2 78.7601ZM141.389 63.3461L143.939 60.2643L143.939 60.2643L141.389 63.3461ZM118.754 53.4486L119.63 49.5458L119.63 49.5458L118.754 53.4486ZM52.6943 56.2181L53.7682 60.0713L53.7684 60.0712L52.6943 56.2181ZM46.042 52.4662L42.1888 53.54L42.1889 53.5404L46.042 52.4662ZM88.792 93.6761V89.6761H88.792L88.792 93.6761ZM59.5195 96.9261L58.4751 93.0649L58.4751 93.0649L59.5195 96.9261ZM51.7197 99.9935L49.5651 96.6234L49.5649 96.6235L51.7197 99.9935ZM51.7002 100.005L49.5384 96.6397L44.2985 100.005L49.5386 103.371L51.7002 100.005ZM51.7188 100.018L49.5641 103.388L49.5642 103.388L51.7188 100.018ZM59.5186 103.084L58.4748 106.946H58.4748L59.5186 103.084ZM88.79 106.325V102.325H88.788L88.79 106.325ZM129.379 100L130.835 103.726L140.368 100L130.835 96.2748L129.379 100ZM49.7939 45.8148L50.868 49.6679C73.747 43.2901 99.8226 42.2289 120.244 46.8143L121.12 42.9115L121.996 39.0087C100.125 34.0977 72.7016 35.2765 48.7198 41.9617L49.7939 45.8148ZM121.12 42.9115L120.244 46.8143C130.452 49.1066 139.35 52.8324 145.723 58.1066L148.273 55.0248L150.823 51.943C143.14 45.585 132.918 41.4611 121.996 39.0087L121.12 42.9115ZM148.273 55.0248L145.723 58.1065C152.135 63.412 156 70.3 156 78.7602L160 78.7601L164 78.7601C164 67.519 158.742 58.4957 150.824 51.943L148.273 55.0248ZM160 78.7601L156 78.7199L155.994 79.3029L159.994 79.3431L163.994 79.3833L164 78.8003L160 78.7601ZM159.994 79.3431L155.995 79.2609C155.854 86.1181 152.798 92.0852 147.413 97.0629L150.128 100L152.843 102.938C159.533 96.7541 163.8 88.8232 163.993 79.4254L159.994 79.3431ZM150.128 100L147.413 102.938C152.923 108.031 156 114.164 156 121.24L160 121.24L164 121.24C164 111.559 159.696 103.397 152.843 97.0629L150.128 100ZM160 121.24H156C156 129.697 152.135 136.582 145.724 141.886L148.273 144.968L150.823 148.05C158.741 141.5 164 132.479 164 121.24H160ZM148.273 144.968L145.724 141.886C139.35 147.159 130.452 150.884 120.244 153.177L121.12 157.079L121.996 160.982C132.918 158.53 143.139 154.406 150.823 148.05L148.273 144.968ZM121.12 157.079L120.244 153.177C99.8227 157.762 73.7469 156.704 50.8681 150.333L49.7949 154.186L48.7218 158.039C72.703 164.718 100.126 165.893 121.996 160.982L121.12 157.079ZM49.7949 154.186L50.8686 150.333C50.1239 150.125 49.6879 149.353 49.8953 148.608L46.042 147.535L42.1886 146.461C40.796 151.462 43.7208 156.646 48.7213 158.039L49.7949 154.186ZM46.042 147.535L49.8952 148.608C50.1026 147.864 50.8752 147.428 51.6205 147.635L52.6934 143.782L53.7663 139.928C48.7661 138.536 43.5821 141.46 42.1888 146.461L46.042 147.535ZM52.6934 143.782L51.6202 147.635C74.1132 153.899 99.7166 154.917 119.63 150.445L118.754 146.542L117.878 142.64C99.4129 146.786 75.1571 145.885 53.7665 139.928L52.6934 143.782ZM118.754 146.542L119.63 150.445C129.589 148.209 138.024 144.623 143.939 139.729L141.39 136.647L138.84 133.565C134.234 137.375 127.123 140.563 117.878 142.64L118.754 146.542ZM141.39 136.647L143.939 139.729C149.823 134.862 153.2 128.724 153.2 121.24H149.2H145.2C145.2 125.954 143.205 129.954 138.84 133.565L141.39 136.647ZM149.2 121.24L153.2 121.24C153.2 114.548 149.954 108.362 143.554 103.303L141.073 106.441L138.593 109.579C143.454 113.421 145.2 117.442 145.2 121.24L149.2 121.24ZM141.073 106.441L139.136 102.941C138.601 103.238 138.076 103.521 137.552 103.788L139.37 107.351L141.189 110.914C141.819 110.592 142.428 110.263 143.011 109.94L141.073 106.441ZM139.37 107.351L137.552 103.788C125.908 109.731 109.215 113.123 88.7949 113.123L88.7949 117.123L88.795 121.123C109.954 121.123 128.029 117.63 141.189 110.914L139.37 107.351ZM88.7949 117.123H84.7949V117.124H88.7949H92.7949V117.123H88.7949ZM88.7949 117.124L90.5838 113.547L90.5818 113.546L88.793 117.123L87.0041 120.701L87.0061 120.702L88.7949 117.124ZM88.793 117.123L85.9645 114.295L85.9636 114.296L88.792 117.124L91.6204 119.953L91.6214 119.952L88.793 117.123ZM88.792 117.124L91.6204 114.296L91.6194 114.295L88.791 117.123L85.9626 119.952L85.9636 119.953L88.792 117.124ZM88.791 117.123L88.7891 113.123C76.7214 113.129 65.7463 111.811 57.7449 109.649L56.7012 113.51L55.6575 117.372C64.5166 119.766 76.2281 121.129 88.7929 121.123L88.791 117.123ZM56.7012 113.51L57.7449 109.649C53.7543 108.57 50.4223 107.26 48.0559 105.747L45.9014 109.118L43.7468 112.488C47.0858 114.622 51.2949 116.192 55.6574 117.372L56.7012 113.51ZM45.9014 109.118L48.056 105.747C45.7323 104.262 44.0001 102.352 44 100L40 100L36 100C36.0002 106.652 40.87 110.648 43.7468 112.488L45.9014 109.118ZM40 100H44C44 99.9701 44.0002 99.9502 44.0005 99.9367C44.0007 99.9234 44.0009 99.9203 44.0007 99.9246L40.0059 99.722L36.011 99.5194C36.0014 99.7086 36 99.8777 36 100H40ZM40.0059 99.722L44.0038 99.8493C44.0761 97.5806 45.7883 95.715 48.0562 94.2649L45.9014 90.8949L43.7466 87.5249C40.927 89.3277 36.2119 93.1862 36.0079 99.5948L40.0059 99.722ZM45.9014 90.8949L48.0561 94.2649C50.4224 92.7519 53.754 91.442 57.7446 90.3626L56.7002 86.5013L55.6558 82.6401C51.2938 83.82 47.0853 85.3902 43.7466 87.5249L45.9014 90.8949ZM56.7002 86.5013L57.7446 90.3626C65.7471 88.1981 76.7236 86.8754 88.792 86.8754L88.792 82.8754L88.792 78.8754C76.2264 78.8754 64.5146 80.2439 55.6558 82.6401L56.7002 86.5013ZM88.792 82.8754V86.8754C109.213 86.8754 125.907 90.2683 137.552 96.2116L139.37 92.6488L141.189 89.086C128.028 82.3691 109.952 78.8754 88.792 78.8754V82.8754ZM139.37 92.6488L137.552 96.2115C138.078 96.48 138.603 96.7631 139.137 97.0583L141.074 93.559L143.012 90.0596C142.427 89.7357 141.818 89.4074 141.189 89.0861L139.37 92.6488ZM141.074 93.559L143.555 96.6968C149.679 91.855 152.929 85.9733 153.184 79.5728L149.188 79.4135L145.191 79.2541C145.046 82.8831 143.261 86.7311 138.594 90.4211L141.074 93.559ZM149.188 79.4135L153.187 79.4912L153.199 78.8378L149.2 78.7601L145.201 78.6824L145.188 79.3357L149.188 79.4135ZM149.2 78.7601L153.2 78.7601C153.2 71.2729 149.822 65.133 143.939 60.2643L141.389 63.3461L138.839 66.4278C143.204 70.04 145.2 74.0413 145.2 78.7602L149.2 78.7601ZM141.389 63.3461L143.939 60.2643C138.023 55.3693 129.589 51.7821 119.63 49.5458L118.754 53.4486L117.878 57.3514C127.123 59.4274 134.232 62.6164 138.839 66.4278L141.389 63.3461ZM118.754 53.4486L119.63 49.5458C99.7166 45.0743 74.1132 46.0949 51.6202 52.365L52.6943 56.2181L53.7684 60.0712C75.1585 54.1085 99.4136 53.2055 117.878 57.3514L118.754 53.4486ZM52.6943 56.2181L51.6204 52.365C50.8756 52.5726 50.1026 52.1365 49.895 51.3919L46.042 52.4662L42.1889 53.5404C43.5831 58.541 48.7678 61.4649 53.7682 60.0713L52.6943 56.2181ZM46.042 52.4662L49.8952 51.3924C49.6878 50.6483 50.123 49.8757 50.8684 49.6678L49.7939 45.8148L48.7195 41.9618C43.7201 43.3559 40.7951 48.539 42.1888 53.54L46.042 52.4662ZM88.792 93.6761L88.792 89.6761C76.8974 89.6762 66.1778 90.9814 58.4751 93.0649L59.5195 96.9261L60.5639 100.787C67.4096 98.9357 77.3937 97.6762 88.792 97.6761L88.792 93.6761ZM59.5195 96.9261L58.4751 93.0649C54.6146 94.1091 51.5909 95.3283 49.5651 96.6234L51.7197 99.9935L53.8743 103.364C54.9269 102.691 57.0732 101.732 60.564 100.787L59.5195 96.9261ZM51.7197 99.9935L49.5649 96.6235C49.5887 96.6084 49.6097 96.5953 49.6272 96.5845C49.6447 96.5738 49.6597 96.5649 49.6709 96.5582C49.6821 96.5515 49.691 96.5463 49.6959 96.5434C49.7003 96.5409 49.704 96.5387 49.7021 96.5398C49.7018 96.54 49.6961 96.5433 49.6895 96.5472C49.6825 96.5513 49.6714 96.5578 49.6581 96.5657C49.6446 96.5737 49.6275 96.584 49.6077 96.5962C49.5879 96.6084 49.5645 96.623 49.5384 96.6397L51.7002 100.005L53.862 103.371C53.8375 103.387 53.8157 103.4 53.7975 103.411C53.7793 103.422 53.7638 103.432 53.752 103.439C53.7402 103.446 53.7308 103.451 53.7254 103.455C53.7226 103.456 53.7204 103.457 53.7192 103.458C53.7181 103.459 53.7173 103.459 53.7178 103.459C53.7178 103.459 53.7194 103.458 53.721 103.457C53.7228 103.456 53.7256 103.454 53.7289 103.452C53.7355 103.449 53.746 103.442 53.7588 103.435C53.7717 103.427 53.7883 103.417 53.8074 103.406C53.8265 103.394 53.8492 103.38 53.8745 103.364L51.7197 99.9935ZM51.7002 100.005L49.5386 103.371C49.5141 103.355 49.4928 103.341 49.4752 103.329C49.4577 103.318 49.4429 103.307 49.4318 103.3C49.4209 103.292 49.4123 103.286 49.4075 103.283C49.4034 103.28 49.3998 103.277 49.4017 103.279C49.4021 103.279 49.4076 103.283 49.4141 103.287C49.4211 103.292 49.4318 103.3 49.4449 103.309C49.4581 103.318 49.475 103.33 49.4946 103.343C49.5143 103.356 49.5376 103.371 49.5641 103.388L51.7188 100.018L53.8734 96.6479C53.8983 96.6638 53.9201 96.6781 53.9382 96.6902C53.9563 96.7023 53.9715 96.7127 53.9832 96.7207C53.9948 96.7287 54.004 96.7351 54.0094 96.7389C54.0121 96.7409 54.0143 96.7424 54.0156 96.7433C54.0167 96.7441 54.0176 96.7447 54.0172 96.7444C54.0172 96.7444 54.0167 96.7441 54.0163 96.7438C54.0158 96.7435 54.0151 96.743 54.0142 96.7424C54.0126 96.7412 54.0099 96.7393 54.0067 96.7371C54.0005 96.7327 53.9903 96.7256 53.9778 96.7169C53.9652 96.7082 53.9489 96.6971 53.9298 96.6843C53.9107 96.6714 53.8878 96.6563 53.8618 96.6396L51.7002 100.005ZM51.7188 100.018L49.5642 103.388C51.5899 104.683 54.6141 105.902 58.4748 106.946L59.5186 103.084L60.5623 99.2229C57.0718 98.2794 54.9254 97.3204 53.8733 96.6478L51.7188 100.018ZM59.5186 103.084L58.4748 106.946C66.1773 109.028 76.8973 110.331 88.792 110.325L88.79 106.325L88.788 102.325C77.391 102.33 67.4072 101.073 60.5623 99.2229L59.5186 103.084ZM88.79 106.325V110.325H88.792V106.325V102.325H88.79V106.325ZM88.792 106.325V110.325C105.913 110.325 120.148 107.903 130.835 103.726L129.379 100L127.923 96.2748C118.42 99.9886 105.235 102.325 88.792 102.325V106.325ZM129.379 100L130.835 96.2748C120.148 92.0981 105.913 89.6761 88.792 89.6761V93.6761V97.6761C105.235 97.6761 118.42 100.012 127.923 103.726L129.379 100Z" fill="white" mask="url(#path-2-inside-1_42_50)"/>
<line x1="154.3" y1="97" x2="154.3" y2="46" stroke="black"/>
<line x1="154.3" y1="155" x2="154.3" y2="104" stroke="black"/>
<path d="M154 79.3616C154 47.4536 96.0163 38.9696 50.6443 51.6176" stroke="black" stroke-width="1.5" stroke-miterlimit="10" stroke-linecap="round"/>
<path d="M44.8003 100.602C44.8003 107.082 64.2283 112.338 88.1923 112.326" stroke="black" stroke-width="1.5" stroke-miterlimit="10" stroke-linecap="round"/>
<path d="M88.1923 88.8776C64.2283 88.8776 44.8003 94.1336 44.8003 100.614" stroke="black" stroke-width="1.5" stroke-miterlimit="10" stroke-linecap="round"/>
<path d="M154 121.842C154 102.378 128.776 88.8776 88.1921 88.8776" stroke="black" stroke-width="1.5" stroke-miterlimit="10" stroke-linecap="round"/>
<path d="M50.6443 149.586C96.0163 162.222 154 153.738 154 121.842" stroke="black" stroke-width="1.5" stroke-miterlimit="10" stroke-linecap="round"/>
<path d="M88.1921 112.326C128.776 112.326 154 98.8256 154 79.3616" stroke="black" stroke-width="1.5" stroke-miterlimit="10" stroke-linecap="round"/>
<rect x="151.8" y="75" width="5" height="5" fill="white" stroke="black"/>
<rect x="151.8" y="44" width="5" height="5" rx="2.5" fill="white" stroke="black"/>
<line x1="44.3003" y1="114" x2="44.3003" y2="86" stroke="black"/>
<rect x="41.8003" y="84" width="5" height="5" rx="2.5" fill="white" stroke="black"/>
<rect x="41.8003" y="111" width="5" height="5" rx="2.5" fill="white" stroke="black"/>
<line x1="55.8003" y1="88.5" x2="135.8" y2="88.5" stroke="black"/>
<line x1="55.8003" y1="112.5" x2="135.8" y2="112.5" stroke="black"/>
<rect x="137.8" y="86" width="5" height="5" rx="2.5" transform="rotate(90 137.8 86)" fill="white" stroke="black"/>
<rect x="137.8" y="110" width="5" height="5" rx="2.5" transform="rotate(90 137.8 110)" fill="white" stroke="black"/>
<rect x="57.8003" y="86" width="5" height="5" rx="2.5" transform="rotate(90 57.8003 86)" fill="white" stroke="black"/>
<rect x="57.8003" y="110" width="5" height="5" rx="2.5" transform="rotate(90 57.8003 110)" fill="white" stroke="black"/>
<line x1="51.8571" y1="51.6645" x2="98.0788" y2="30.111" stroke="black"/>
<rect x="98.8347" y="27" width="5" height="5" rx="2.5" transform="rotate(65 98.8347 27)" fill="white" stroke="black"/>
<line y1="-0.5" x2="51" y2="-0.5" transform="matrix(0.906308 0.422618 0.422618 -0.906308 52.0684 149.813)" stroke="black"/>
<rect width="5" height="5" rx="2.5" transform="matrix(0.422618 -0.906308 -0.906308 -0.422618 98.8347 174.93)" fill="white" stroke="black"/>
<rect x="151.8" y="153" width="5" height="5" rx="2.5" fill="white" stroke="black"/>
<rect x="151.8" y="102" width="5" height="5" rx="2.5" fill="white" stroke="black"/>
<rect x="151.8" y="94" width="5" height="5" rx="2.5" fill="white" stroke="black"/>
<rect x="87.8003" y="86" width="5" height="5" fill="white" stroke="black"/>
<rect x="87.8003" y="110" width="5" height="5" fill="white" stroke="black"/>
<rect x="151.8" y="120" width="5" height="5" fill="white" stroke="black"/>
<rect x="49.8003" y="148" width="5" height="5" fill="white" stroke="black"/>
<rect x="49.8003" y="49" width="5" height="5" fill="white" stroke="black"/>
<rect x="41.8003" y="98" width="5" height="5" fill="white" stroke="black"/>
</svg>
