<svg width="611" height="148" viewBox="0 0 611 148" fill="none" xmlns="http://www.w3.org/2000/svg">
<path d="M11.7939 18.8148C35.2243 12.2833 61.974 11.1633 83.1201 15.9115C93.6849 18.2838 103.245 22.2088 110.273 28.0248C117.439 33.9538 122 41.9095 122 51.7601C122 60.1386 118.31 67.2867 112.128 73.0004C118.31 78.714 122 85.8622 122 94.2406L121.987 95.1586C121.713 104.584 117.214 112.227 110.273 117.969C103.245 123.783 93.6848 127.708 83.1201 130.08C61.9745 134.829 35.2249 133.712 11.7949 127.187C8.92233 126.387 7.24207 123.408 8.04199 120.536C8.84221 117.663 11.8205 115.983 14.6934 116.783C36.6351 122.893 61.5647 123.852 80.7539 119.543C90.3561 117.387 98.1287 114 103.39 109.648C108.354 105.541 111.03 100.656 111.192 94.809L111.2 94.2406C111.2 88.9954 108.704 83.8917 103.073 79.4408C102.514 79.7503 101.948 80.0561 101.37 80.351C88.9685 86.6809 71.5845 90.1231 50.7949 90.1234V90.1244L50.793 90.1234L50.792 90.1244L50.791 90.1234C38.4747 90.1293 27.1315 88.7888 18.7012 86.5101C14.5245 85.3812 10.7541 83.9413 7.90137 82.1176C5.30109 80.4551 2 77.5021 2 73.0004C2 72.907 2.00118 72.8142 2.00586 72.722C2.14412 68.3837 5.35774 65.5223 7.90137 63.8959C10.7539 62.072 14.5238 60.632 18.7002 59.5023C27.1309 57.222 38.4749 55.8764 50.792 55.8763L52.7314 55.8861C72.6648 56.0941 89.3555 59.5174 101.37 65.6498C101.948 65.9446 102.515 66.2494 103.074 66.559C108.704 62.108 111.2 57.0049 111.2 51.7601C111.2 45.6571 108.513 40.5865 103.389 36.3461C98.1278 31.9929 90.3559 28.6047 80.7539 26.4486C61.5651 22.1399 36.6358 23.1017 14.6943 29.2181C11.8216 30.0188 8.8428 28.3389 8.04199 25.4662C7.24151 22.5936 8.92152 19.6158 11.7939 18.8148ZM48.624 66.6918C37.8636 66.8399 28.3391 68.0825 21.5195 69.9271C17.8438 70.9214 15.2588 72.0105 13.7197 72.9945C13.7135 72.9985 13.7073 73.0023 13.7012 73.0062C13.7071 73.01 13.7128 73.0141 13.7188 73.0179C15.2576 74.0018 17.8428 75.0908 21.5186 76.0844C28.7923 78.0504 39.1441 79.3304 50.79 79.3246H50.792C67.5744 79.3246 81.2839 76.9457 91.3789 73.0004C81.6561 69.2006 68.5805 66.8546 52.6357 66.6869L50.792 66.6771L48.624 66.6918Z" fill="#0044FF"/>
<path d="M11.7939 18.8148L11.2569 16.8883L11.2568 16.8883L11.7939 18.8148ZM83.1201 15.9115L83.5583 13.9601L83.5583 13.9601L83.1201 15.9115ZM110.273 28.0248L111.548 26.4839L111.548 26.4839L110.273 28.0248ZM122 51.7601H124V51.7601L122 51.7601ZM112.128 73.0004L110.77 71.5316L109.181 73.0004L110.77 74.4691L112.128 73.0004ZM122 94.2406L124 94.2683L124 94.2544V94.2406L122 94.2406ZM121.987 95.1586L123.986 95.2168L123.987 95.2015L123.987 95.1862L121.987 95.1586ZM110.273 117.969L111.548 119.51L111.548 119.51L110.273 117.969ZM83.1201 130.08L83.5583 132.032H83.5583L83.1201 130.08ZM11.7949 127.187L11.2581 129.114L11.2583 129.114L11.7949 127.187ZM8.04199 120.536L6.11534 119.999L6.11529 119.999L8.04199 120.536ZM14.6934 116.783L15.2299 114.856L15.2299 114.856L14.6934 116.783ZM80.7539 119.543L81.1921 121.495H81.1921L80.7539 119.543ZM103.39 109.648L104.664 111.189L104.664 111.189L103.39 109.648ZM111.192 94.809L113.192 94.8645L113.192 94.8505L113.192 94.8364L111.192 94.809ZM111.2 94.2406L113.2 94.2681L113.2 94.2543V94.2406L111.2 94.2406ZM103.073 79.4408L104.313 77.8718L103.269 77.0462L102.104 77.6911L103.073 79.4408ZM101.37 80.351L102.279 82.1323H102.279L101.37 80.351ZM50.7949 90.1234L50.7949 88.1234L48.7949 88.1234V90.1234H50.7949ZM50.7949 90.1244L49.9005 91.9132L52.7949 93.3605V90.1244H50.7949ZM50.793 90.1234L51.6874 88.3346L50.3981 87.6899L49.3788 88.7092L50.793 90.1234ZM50.792 90.1244L49.3778 91.5386L50.792 92.9528L52.2062 91.5386L50.792 90.1244ZM50.791 90.1234L52.2052 88.7092L51.619 88.123L50.7901 88.1234L50.791 90.1234ZM18.7012 86.5101L18.1793 88.4408H18.1793L18.7012 86.5101ZM7.90137 82.1176L6.82406 83.8026L6.82408 83.8026L7.90137 82.1176ZM2 73.0004L0 73.0003V73.0004H2ZM2.00586 72.722L4.00329 72.8235L4.00424 72.8046L4.00484 72.7858L2.00586 72.722ZM7.90137 63.8959L6.82398 62.2109L6.82395 62.2109L7.90137 63.8959ZM18.7002 59.5023L18.178 57.5717H18.178L18.7002 59.5023ZM50.792 55.8763L50.8021 53.8763H50.792L50.792 55.8763ZM52.7314 55.8861L52.7523 53.8862L52.7415 53.8861L52.7314 55.8861ZM101.37 65.6498L102.279 63.8684L102.279 63.8684L101.37 65.6498ZM103.074 66.559L102.105 68.3086L103.27 68.9536L104.315 68.1279L103.074 66.559ZM111.2 51.7601H113.2V51.7601L111.2 51.7601ZM103.389 36.3461L104.664 34.8052L104.664 34.8052L103.389 36.3461ZM80.7539 26.4486L81.1921 24.4972L81.1921 24.4972L80.7539 26.4486ZM14.6943 29.2181L15.2313 31.1447L15.2314 31.1447L14.6943 29.2181ZM8.04199 25.4662L6.1154 26.0031L6.11545 26.0032L8.04199 25.4662ZM48.624 66.6918L48.6105 64.6918L48.5965 64.692L48.624 66.6918ZM21.5195 69.9271L20.9973 67.9965L20.9973 67.9965L21.5195 69.9271ZM13.7197 72.9945L12.6424 71.3095L12.6423 71.3095L13.7197 72.9945ZM13.7012 73.0062L12.6204 71.3234L9.9999 73.0065L12.6206 74.6892L13.7012 73.0062ZM13.7188 73.0179L12.6414 74.703L12.6415 74.703L13.7188 73.0179ZM21.5186 76.0844L20.9967 78.0151L20.9967 78.0151L21.5186 76.0844ZM50.79 79.3246V77.3246H50.789L50.79 79.3246ZM91.3789 73.0004L92.1069 74.8632L96.8734 73.0004L92.1069 71.1376L91.3789 73.0004ZM52.6357 66.6869L52.6568 64.687L52.6463 64.6869L52.6357 66.6869ZM50.792 66.6771L50.8026 64.6772L50.7905 64.6771L50.7785 64.6772L50.792 66.6771ZM11.7939 18.8148L12.331 20.7414C35.4856 14.2867 61.8983 13.1961 82.6819 17.8629L83.1201 15.9115L83.5583 13.9601C62.0497 9.13051 34.9629 10.2799 11.2569 16.8883L11.7939 18.8148ZM83.1201 15.9115L82.6819 17.8629C93.0685 20.1952 102.297 24.0206 108.998 29.5657L110.273 28.0248L111.548 26.4839C104.192 20.397 94.3013 16.3724 83.5583 13.9601L83.1201 15.9115ZM110.273 28.0248L108.998 29.5656C115.787 35.1829 120 42.6047 120 51.7602L122 51.7601L124 51.7601C124 41.2142 119.09 32.7247 111.548 26.4839L110.273 28.0248ZM122 51.7601H120C120 59.4876 116.616 66.1282 110.77 71.5316L112.128 73.0004L113.485 74.4691C120.003 68.4452 124 60.7896 124 51.7601H122ZM112.128 73.0004L110.77 74.4691C116.616 79.8725 120 86.5132 120 94.2406L122 94.2406L124 94.2406C124 85.2112 120.003 77.5555 113.485 71.5316L112.128 73.0004ZM122 94.2406L120 94.2129L119.987 95.1309L121.987 95.1586L123.987 95.1862L124 94.2683L122 94.2406ZM121.987 95.1586L119.988 95.1004C119.733 103.853 115.577 110.986 108.999 116.428L110.273 117.969L111.548 119.51C118.851 113.469 123.692 105.316 123.986 95.2168L121.987 95.1586ZM110.273 117.969L108.999 116.428C102.297 121.972 93.0684 125.797 82.6819 128.129L83.1201 130.08L83.5583 132.032C94.3012 129.62 104.192 125.595 111.548 119.51L110.273 117.969ZM83.1201 130.08L82.6819 128.129C61.8986 132.796 35.4859 131.709 12.3315 125.26L11.7949 127.187L11.2583 129.114C34.9639 135.716 62.0504 136.861 83.5583 132.032L83.1201 130.08ZM11.7949 127.187L12.3317 125.26C10.5233 124.756 9.46498 122.881 9.96869 121.072L8.04199 120.536L6.11529 119.999C5.01917 123.936 7.32139 128.017 11.2581 129.114L11.7949 127.187ZM8.04199 120.536L9.96864 121.072C10.4724 119.264 12.3477 118.206 14.1568 118.709L14.6934 116.783L15.2299 114.856C11.2933 113.76 7.21204 116.062 6.11534 119.999L8.04199 120.536ZM14.6934 116.783L14.1568 118.709C36.3741 124.897 61.6407 125.885 81.1921 121.495L80.7539 119.543L80.3157 117.592C61.4888 121.819 36.8961 120.89 15.2299 114.856L14.6934 116.783ZM80.7539 119.543L81.1921 121.495C90.9726 119.299 99.0762 115.812 104.664 111.189L103.39 109.648L102.115 108.107C97.1813 112.188 89.7397 115.476 80.3157 117.592L80.7539 119.543ZM103.39 109.648L104.664 111.189C109.992 106.781 113.011 101.385 113.192 94.8645L111.192 94.809L109.193 94.7535C109.05 99.9261 106.716 104.3 102.115 108.107L103.39 109.648ZM111.192 94.809L113.192 94.8364L113.2 94.2681L111.2 94.2406L109.2 94.2131L109.193 94.7815L111.192 94.809ZM111.2 94.2406L113.2 94.2406C113.2 88.2721 110.329 82.6269 104.313 77.8718L103.073 79.4408L101.833 81.0098C107.079 85.1566 109.2 89.7188 109.2 94.2406L111.2 94.2406ZM103.073 79.4408L102.104 77.6911C101.557 77.9939 101.012 78.2883 100.461 78.5696L101.37 80.351L102.279 82.1323C102.884 81.8239 103.471 81.5066 104.042 81.1905L103.073 79.4408ZM101.37 80.351L100.461 78.5696C88.4382 84.7061 71.3998 88.1231 50.7949 88.1234L50.7949 90.1234L50.7949 92.1234C71.7692 92.1231 89.4987 88.6557 102.279 82.1323L101.37 80.351ZM50.7949 90.1234H48.7949V90.1244H50.7949H52.7949V90.1234H50.7949ZM50.7949 90.1244L51.6894 88.3355L51.6874 88.3346L50.793 90.1234L49.8985 91.9123L49.9005 91.9132L50.7949 90.1244ZM50.793 90.1234L49.3788 88.7092L49.3778 88.7102L50.792 90.1244L52.2062 91.5386L52.2072 91.5376L50.793 90.1234ZM50.792 90.1244L52.2062 88.7102L52.2052 88.7092L50.791 90.1234L49.3768 91.5376L49.3778 91.5386L50.792 90.1244ZM50.791 90.1234L50.7901 88.1234C38.5981 88.1292 27.4389 86.8001 19.223 84.5794L18.7012 86.5101L18.1793 88.4408C26.8241 90.7774 38.3514 92.1293 50.792 92.1234L50.791 90.1234ZM18.7012 86.5101L19.223 84.5794C15.1394 83.4756 11.5882 82.1008 8.97865 80.4325L7.90137 82.1176L6.82408 83.8026C9.91996 85.7819 13.9097 87.2868 18.1793 88.4408L18.7012 86.5101ZM7.90137 82.1176L8.97868 80.4325C6.51659 78.8584 4 76.4269 4 73.0004H2H0C0 78.5773 4.08559 82.0518 6.82406 83.8026L7.90137 82.1176ZM2 73.0004L4 73.0004C4 72.9216 4.00108 72.8669 4.00329 72.8235L2.00586 72.722L0.00843263 72.6206C0.00128055 72.7615 9.53674e-07 72.8925 0 73.0003L2 73.0004ZM2.00586 72.722L4.00484 72.7858C4.11012 69.4824 6.57286 67.1193 8.97879 65.5809L7.90137 63.8959L6.82395 62.2109C4.14261 63.9254 0.178119 67.285 0.0068742 72.6583L2.00586 72.722ZM7.90137 63.8959L8.97876 65.5809C11.5881 63.9124 15.1389 62.5375 19.2224 61.4329L18.7002 59.5023L18.178 57.5717C13.9088 58.7265 9.91959 60.2315 6.82398 62.2109L7.90137 63.8959ZM18.7002 59.5023L19.2224 61.4329C27.439 59.2105 38.5992 57.8764 50.792 57.8763L50.792 55.8763L50.792 53.8763C38.3506 53.8764 26.8227 55.2334 18.178 57.5717L18.7002 59.5023ZM50.792 55.8763L50.7819 57.8763L52.7214 57.8861L52.7314 55.8861L52.7415 53.8861L50.8021 53.8764L50.792 55.8763ZM52.7314 55.8861L52.7106 57.886C72.4602 58.092 88.8148 61.4869 100.461 67.4312L101.37 65.6498L102.279 63.8684C89.8962 57.5479 72.8694 54.0961 52.7523 53.8862L52.7314 55.8861ZM101.37 65.6498L100.461 67.4312C101.014 67.7135 101.561 68.0073 102.105 68.3086L103.074 66.559L104.043 64.8093C103.469 64.4916 102.882 64.1758 102.279 63.8684L101.37 65.6498ZM103.074 66.559L104.315 68.1279C110.329 63.3729 113.2 57.7283 113.2 51.7601H111.2H109.2C109.2 56.2815 107.079 60.8432 101.834 64.99L103.074 66.559ZM111.2 51.7601L113.2 51.7601C113.2 44.965 110.168 39.3597 104.664 34.8052L103.389 36.3461L102.114 37.8869C106.858 41.8132 109.2 46.3492 109.2 51.7602L111.2 51.7601ZM103.389 36.3461L104.664 34.8052C99.0755 30.1811 90.9725 26.6934 81.1921 24.4972L80.7539 26.4486L80.3157 28.4C89.7393 30.5161 97.1802 33.8047 102.114 37.8869L103.389 36.3461ZM80.7539 26.4486L81.1921 24.4972C61.6409 20.1071 36.3745 21.0983 14.1573 27.2916L14.6943 29.2181L15.2314 31.1447C36.8971 25.1051 61.4894 24.1727 80.3157 28.4L80.7539 26.4486ZM14.6943 29.2181L14.1574 27.2916C12.3485 27.7958 10.4727 26.7378 9.96854 24.9291L8.04199 25.4662L6.11545 26.0032C7.21289 29.9401 11.2947 32.2419 15.2313 31.1447L14.6943 29.2181ZM8.04199 25.4662L9.96859 24.9293C9.46464 23.1209 10.5223 21.2457 12.3311 20.7413L11.7939 18.8148L11.2568 16.8883C7.32071 17.9858 5.01837 22.0664 6.1154 26.0031L8.04199 25.4662ZM48.624 66.6918L48.5965 64.692C37.7187 64.8417 28.0201 66.0969 20.9973 67.9965L21.5195 69.9271L22.0417 71.8577C28.6581 70.0681 38.0085 68.8381 48.6516 68.6916L48.624 66.6918ZM21.5195 69.9271L20.9973 67.9965C17.2292 69.0157 14.4248 70.1699 12.6424 71.3095L13.7197 72.9945L14.7971 74.6796C16.0928 73.8511 18.4585 72.827 22.0417 71.8577L21.5195 69.9271ZM13.7197 72.9945L12.6423 71.3095C12.6459 71.3072 12.6485 71.3056 12.6493 71.3051C12.6498 71.3047 12.6503 71.3045 12.648 71.3059C12.6465 71.3068 12.6427 71.3092 12.6384 71.312C12.6339 71.3148 12.6276 71.3187 12.6204 71.3234L13.7012 73.0062L14.782 74.689C14.7778 74.6917 14.7746 74.6937 14.7732 74.6946C14.772 74.6954 14.7713 74.6959 14.7728 74.6949C14.7737 74.6943 14.7772 74.6921 14.7808 74.6898C14.7848 74.6874 14.7905 74.6838 14.7971 74.6795L13.7197 72.9945ZM13.7012 73.0062L12.6206 74.6892C12.6073 74.6806 12.597 74.6738 12.5915 74.6701C12.5887 74.6682 12.5866 74.6668 12.5857 74.6662C12.5849 74.6657 12.5843 74.6652 12.5855 74.666C12.5861 74.6665 12.5884 74.668 12.5909 74.6697C12.5936 74.6715 12.5974 74.6741 12.602 74.6772C12.611 74.6832 12.6247 74.6923 12.6414 74.703L13.7188 73.0179L14.7961 71.3329C14.8098 71.3417 14.8206 71.3488 14.8266 71.3529C14.8297 71.355 14.8321 71.3566 14.8333 71.3574C14.8344 71.3581 14.8352 71.3587 14.8344 71.3581C14.8341 71.3579 14.832 71.3565 14.8299 71.355C14.8275 71.3534 14.8239 71.351 14.8196 71.3481C14.8112 71.3425 14.798 71.3337 14.7818 71.3233L13.7012 73.0062ZM13.7188 73.0179L12.6415 74.703C14.4237 75.8424 17.2284 76.9965 20.9967 78.0151L21.5186 76.0844L22.0404 74.1536C18.4572 73.1851 16.0915 72.1611 14.796 71.3329L13.7188 73.0179ZM21.5186 76.0844L20.9967 78.0151C28.4848 80.0391 39.0207 81.3305 50.791 81.3246L50.79 79.3246L50.789 77.3246C39.2675 77.3304 29.0998 76.0618 22.0404 74.1536L21.5186 76.0844ZM50.79 79.3246V81.3246H50.792V79.3246V77.3246H50.79V79.3246ZM50.792 79.3246V81.3246C67.7439 81.3246 81.7158 78.9242 92.1069 74.8632L91.3789 73.0004L90.6509 71.1376C80.852 74.9671 67.4049 77.3246 50.792 77.3246V79.3246ZM91.3789 73.0004L92.1069 71.1376C82.0978 67.2259 68.7682 64.8565 52.6568 64.687L52.6357 66.6869L52.6147 68.6868C68.3929 68.8528 81.2144 71.1753 90.6509 74.8632L91.3789 73.0004ZM52.6357 66.6869L52.6463 64.6869L50.8026 64.6772L50.792 66.6771L50.7814 68.6771L52.6251 68.6869L52.6357 66.6869ZM50.792 66.6771L50.7785 64.6772L48.6105 64.6918L48.624 66.6918L48.6375 68.6917L50.8055 68.6771L50.792 66.6771Z" fill="#0044FF"/>
<path d="M116 52.3616C116 20.4536 58.0163 11.9696 12.6443 24.6176" stroke="white" stroke-width="1.5" stroke-miterlimit="10" stroke-linecap="round"/>
<path d="M6.80029 73.6016C6.80029 80.0816 26.2283 85.3376 50.1923 85.3256" stroke="white" stroke-width="1.5" stroke-miterlimit="10" stroke-linecap="round"/>
<path d="M50.1923 61.8776C26.2283 61.8776 6.80029 67.1336 6.80029 73.6136" stroke="white" stroke-width="1.5" stroke-miterlimit="10" stroke-linecap="round"/>
<path d="M116 94.8416C116 75.3776 90.7761 61.8776 50.1921 61.8776" stroke="white" stroke-width="1.5" stroke-miterlimit="10" stroke-linecap="round"/>
<path d="M12.6443 122.586C58.0163 135.222 116 126.738 116 94.8416" stroke="white" stroke-width="1.5" stroke-miterlimit="10" stroke-linecap="round"/>
<path d="M50.1921 85.3256C90.7761 85.3256 116 71.8256 116 52.3616" stroke="white" stroke-width="1.5" stroke-miterlimit="10" stroke-linecap="round"/>
<path d="M228.44 30.328C233.3 30.328 236.696 33.724 236.696 38.248C236.696 42.772 233.192 46.276 228.44 46.276C223.688 46.276 220.064 42.88 220.064 38.248C220.064 33.616 223.568 30.328 228.44 30.328Z" fill="black"/>
<path d="M246.428 54.3161H260.348V64.9481C263.516 58.3841 269.852 52.6121 279.692 52.6121C294.404 52.6121 304.472 65.2841 304.472 82.2521C304.472 100.696 292.928 112.912 278.564 112.912C270.416 112.912 263.972 108.952 260.456 103.072V132.82H246.428V54.3041V54.3161ZM274.832 100.816C284 100.816 290.108 93.3521 290.108 82.8281C290.108 72.3041 284.228 64.9481 275.168 64.9481C266.108 64.9481 260.228 72.5321 260.228 83.1641C260.228 93.7961 265.664 100.816 274.82 100.816H274.832Z" fill="black"/>
<path d="M309.344 94.48C309.344 83.392 317.828 76.036 329.936 76.036C336.836 76.036 341.924 78.748 344.756 82.6V79.096C344.756 69.82 339.104 64.612 330.044 64.612C323.024 64.612 317.036 67.324 312.392 71.74V58.96C317.48 55.456 324.272 52.624 332.756 52.624C349.052 52.624 358.556 62.128 358.556 77.74V111.232H344.756V103.996C341.816 109.54 336.152 112.936 328.688 112.936C317.492 112.936 309.344 105.016 309.344 94.492V94.48ZM333.776 102.964C340.568 102.964 344.864 99.004 344.864 93.568C344.864 88.48 340.676 84.628 333.884 84.628C327.092 84.628 322.904 88.252 322.904 93.796C322.904 99.34 326.756 102.964 333.764 102.964H333.776Z" fill="black"/>
<path d="M235.46 54.316H221.432V111.22H235.46V54.316Z" fill="black"/>
<path d="M155.24 32.02H187.484C202.076 32.02 210.452 40.96 210.452 52.384C210.452 60.532 206.264 66.532 198.68 68.68C208.292 71.392 213.392 78.976 213.392 88.48C213.392 101.488 203.888 111.22 186.356 111.22H155.24V32.02ZM184.772 65.632C192.128 65.632 195.752 61.336 195.752 55.228C195.752 48.556 191.792 44.248 184.208 44.248H169.952V65.632H184.772ZM184.088 99.112C193.592 99.112 198.236 94.468 198.236 87.46C198.236 80.452 193.712 75.688 185.336 75.688H169.952V99.112H184.1H184.088Z" fill="black"/>
<path d="M386.036 111V53.6H393.99V111H386.036ZM408.419 111V53.6H420.473L447.779 101.898V53.6H455.241V111H444.335L415.881 61.062V111H408.419ZM469.641 111V53.6H504.983V60.816H477.595V77.216H503.343V84.268H477.595V111H469.641ZM514.366 111V53.6H535.85C546.428 53.6 553.07 60.57 553.07 70C553.07 79.758 545.936 86.318 534.538 86.318H533.554L555.12 111H544.706L522.32 83.94V111H514.366ZM522.32 80.168H532.898C540.77 80.168 544.788 76.478 544.788 70.328C544.788 64.424 541.098 60.816 534.21 60.816H522.32V80.168ZM558.312 111L577.746 53.6H588.488L608.004 111H599.558L594.474 95.748H571.514L566.512 111H558.312ZM573.646 89.188H592.342L582.912 60.734L573.646 89.188Z" fill="black"/>
<line x1="116.3" y1="70" x2="116.3" y2="19" stroke="black"/>
<line x1="116.3" y1="128" x2="116.3" y2="77" stroke="black"/>
<rect x="113.8" y="48" width="5" height="5" fill="black" stroke="black"/>
<rect x="113.8" y="17" width="5" height="5" rx="2.5" fill="black" stroke="black"/>
<line x1="6.30029" y1="87" x2="6.30029" y2="59" stroke="black"/>
<rect x="3.80029" y="57" width="5" height="5" rx="2.5" fill="black" stroke="black"/>
<rect x="3.80029" y="84" width="5" height="5" rx="2.5" fill="black" stroke="black"/>
<line x1="17.8003" y1="61.5" x2="97.8003" y2="61.5" stroke="black"/>
<line x1="17.8003" y1="85.5" x2="97.8003" y2="85.5" stroke="black"/>
<rect x="99.8003" y="59" width="5" height="5" rx="2.5" transform="rotate(90 99.8003 59)" fill="black" stroke="black"/>
<rect x="99.8003" y="83" width="5" height="5" rx="2.5" transform="rotate(90 99.8003 83)" fill="black" stroke="black"/>
<rect x="19.8003" y="59" width="5" height="5" rx="2.5" transform="rotate(90 19.8003 59)" fill="black" stroke="black"/>
<rect x="19.8003" y="83" width="5" height="5" rx="2.5" transform="rotate(90 19.8003 83)" fill="black" stroke="black"/>
<line x1="13.8571" y1="24.6645" x2="60.0788" y2="3.11099" stroke="black"/>
<rect x="60.8347" width="5" height="5" rx="2.5" transform="rotate(65 60.8347 0)" fill="black" stroke="black"/>
<line y1="-0.5" x2="51" y2="-0.5" transform="matrix(0.906308 0.422618 0.422618 -0.906308 14.0684 122.813)" stroke="black"/>
<rect width="5" height="5" rx="2.5" transform="matrix(0.422618 -0.906308 -0.906308 -0.422618 60.8347 147.93)" fill="black" stroke="black"/>
<rect x="113.8" y="126" width="5" height="5" rx="2.5" fill="black" stroke="black"/>
<rect x="113.8" y="75" width="5" height="5" rx="2.5" fill="black" stroke="black"/>
<rect x="113.8" y="67" width="5" height="5" rx="2.5" fill="black" stroke="black"/>
<rect x="49.8003" y="59" width="5" height="5" fill="black" stroke="black"/>
<rect x="49.8003" y="83" width="5" height="5" fill="black" stroke="black"/>
<rect x="113.8" y="93" width="5" height="5" fill="black" stroke="black"/>
<rect x="11.8003" y="121" width="5" height="5" fill="black" stroke="black"/>
<rect x="11.8003" y="22" width="5" height="5" fill="black" stroke="black"/>
<rect x="3.80029" y="71" width="5" height="5" fill="black" stroke="black"/>
</svg>
